PathFileType	4	(X/Y/Z)	pose_F01_0-97.trc
DataRate	CameraRate	NumFrames	NumMarkers	Units	OrigDataRate	OrigDataStartFrame	OrigNumFrames
60	60	5	21	m	60	0	97
Frame#	Time	CHip			RHip			RKnee			RAnkle			RBigToe			RSmallToe			RHeel			LHip			LKnee			LAnkle			LBigToe			LSmallToe			LHeel			Neck			Nose			RShoulder			RElbow			RWrist			LShoulder			LElbow			LWrist			
		X1	Y1	Z1	X2	Y2	Z2	X3	Y3	Z3	X4	Y4	Z4	X5	Y5	Z5	X6	Y6	Z6	X7	Y7	Z7	X8	Y8	Z8	X9	Y9	Z9	X10	Y10	Z10	X11	Y11	Z11	X12	Y12	Z12	X13	Y13	Z13	X14	Y14	Z14	X15	Y15	Z15	X16	Y16	Z16	X17	Y17	Z17	X18	Y18	Z18	X19	Y19	Z19	X20	Y20	Z20	X21	Y21	Z21	
0	0.0	-0.2274949859080315	1.8260870302042433	-0.5793057087882875	-0.24496846102329847	1.8234594365001768	-0.508343324746055	-0.2286089414709212	1.6587526788616525	-0.39391109412855707	-0.1940442683394765	1.6101822948247062	-0.4928169137969167	-0.22831116457255318	1.567060352269296	-0.5141530228023312	-0.20272888373259196	1.584760839352838	-0.5259624142377546				-0.20807645478045486	1.8256550088087604	-0.6383996604723615	-0.22169645575904104	1.6932569008951095	-0.6202293464628373	-0.22316873459433334	1.5623383229125245	-0.5934422124712553	-0.2384620312686177	1.5268536174445193	-0.6440873097554445	-0.225488608251205	1.5362273345849087	-0.656958352137932	-0.2557534815785548	1.5102989307596761	-0.7104461963682974	-0.2171574423384903	1.9858716834832282	-0.6067309320250819	-0.23542334456440836	2.0628341289048797	-0.6566160673080668	-0.24343181735971245	1.9855509035492802	-0.5119318004079279	-0.2529731700483625	1.8947192821015602	-0.4547575995847007	-0.2691415119659536	1.8191044481924765	-0.47255561846205185	-0.18640920986857698	1.9875319301750354	-0.6959482460894211	-0.17778159458128695	1.9021109832138223	-0.7096253750000425	-0.18583482537528254	1.8240983389760153	-0.7313103033902878
1	0.016666666666666666	-0.22709357706717678	1.8273715423494687	-0.567534920184989	-0.2420912050626129	1.8257549924280831	-0.49894508198076715	-0.23068734887454595	1.661891158627484	-0.4008160540596074	-0.1940442683394765	1.6101822948247062	-0.4928169137969167	-0.22831116457255318	1.567060352269296	-0.5141530228023312	-0.20272888373259196	1.584760839352838	-0.5259624142377546				-0.20730398737071104	1.826995606062552	-0.6352276490410923	-0.22408764911920453	1.6924549874019605	-0.6175803863092565	-0.2226362340020463	1.564101190491029	-0.5900990364849757	-0.2368462721888403	1.5301648951247901	-0.6455090778233626	-0.22341253468490097	1.5367120893154658	-0.6589754295698674	-0.25168444047659455	1.515707716923604	-0.6925410916100049	-0.21925138524439003	1.98406585379735	-0.604226554755266	-0.23438963477464003	2.0600994220110587	-0.6615433417463855	-0.24627709582162008	1.9824745465997724	-0.5120741308367953	-0.24802460099748352	1.8948547094448052	-0.4383343368360198	-0.26790728297948685	1.8294071729852504	-0.466837015666129	-0.1873144960430717	1.9872458369960935	-0.6989462356801568	-0.17816476133729867	1.899993589690712	-0.709560187935311	-0.1910315351201919	1.8247731792967024	-0.7500701705601288
2	0.03333333333333333	-0.22670389480585973	1.820492940977437	-0.5580784240997274	-0.24573305795592418	1.8158073289583858	-0.4932344874485848	-0.2327657562781707	1.6650296383933156	-0.40772101399065774	-0.1940442683394765	1.6101822948247062	-0.4928169137969167	-0.22831116457255318	1.567060352269296	-0.5141530228023312	-0.20272888373259196	1.584760839352838	-0.5259624142377546				-0.21126119610312233	1.8195241482640843	-0.6298084900773496	-0.22185733115902204	1.689112687041174	-0.6112563915145055	-0.22180787392019366	1.5647479637778343	-0.5868483649512135	-0.23691702940099546	1.5303524138715339	-0.6454814318702606	-0.22354491872929622	1.5371856166707287	-0.6589303229572089	-0.2476153993746342	1.5211165030875318	-0.6746359868517123	-0.2235183553256688	1.984338424231986	-0.5995155583801296	-0.2365199950596727	2.0518530954742054	-0.6572920875914311	-1.6948936073226817	1.8857311207287095	1.0751585305039342	-0.24997633233285788	1.893878526049427	-0.42741815025825997	-0.2750782071366618	1.8345241694071162	-0.46998203661735927	-0.1937962163930798	1.9859090495246858	-0.6918932324531336	-0.18666625924296754	1.9019770981295596	-0.7006054488861226	-0.2003136027365254	1.8295579749085673	-0.7416545107764627
3	0.05	-0.2281183885733582	1.8166382593516197	-0.5522276190423508	-0.24785607855657932	1.813837525002994	-0.49084472430976833	-0.23484416368179545	1.6681681181591472	-0.4146259739217081	-0.1940442683394765	1.6101822948247062	-0.4928169137969167	-0.22831116457255318	1.567060352269296	-0.5141530228023312	-0.20272888373259196	1.584760839352838	-0.5259624142377546				-0.2128129364717683	1.8185035403630183	-0.6240532972321987	-0.22418798432768317	1.6883979536754192	-0.6083768089832796	-0.22091079821731668	1.5621426208721336	-0.5833183779119113	-0.23898254795994722	1.529770465050743	-0.6431847521856999	-0.22562605089800536	1.5368619123939757	-0.65666623886632	-0.24354635827267387	1.5265252892514596	-0.6567308820934198	-0.225601040161302	1.9844794517112025	-0.5971925533234058	-0.23845380283774129	2.053474912902832	-0.6549527764951106	-1.6933657628397667	1.8856411531763406	1.0738167193764658	-0.24965285842735344	1.8962786433581147	-0.4275723673258498	-0.28378089343380297	1.8493997600529581	-0.48996257235159885	-0.19614581679806273	1.9865864559811715	-0.6898192774615524	-0.1890654841442778	1.900378342511292	-0.6982356782761169	-0.2061347737898166	1.8296748009321704	-0.7400294192207397
4	0.06666666666666667	-0.22860732446457857	1.8188444270576556	-0.5474202594140241	-0.24630905011264118	1.8164477792204068	-0.4880023706036586	-0.2369225710854202	1.6713065979249788	-0.4215309338527584	-0.1940442683394765	1.6101822948247062	-0.4928169137969167	-0.22831116457255318	1.567060352269296	-0.5141530228023312	-0.20272888373259196	1.584760839352838	-0.5259624142377546				-0.21258120738813863	1.8227356332960534	-0.6160208968427701	-0.2236042208554558	1.6966970107404302	-0.605483497676614	-0.22165879907431854	1.5638033287671527	-0.5872009750617062	-0.23687967343723174	1.5302149334484518	-0.6453526795640031	-0.22532991173488273	1.538573003942698	-0.6573021987994547	-0.23947731717071355	1.5319340754153874	-0.6388257773351272	-0.2268027269803115	1.9845277295131047	-0.5919029247123526	-0.24044989872571482	2.0527653609940475	-0.652320603391969	-0.2533501896064036	1.982534766161119	-0.499884787709228	-0.2535068997268488	1.8953435712524525	-0.42309274301790645	-0.28615253399626106	1.8548011039616372	-0.48871843427427614	-0.19949489608270465	1.9859306627916251	-0.6818483635875591	-0.19141460292083742	1.8981753741656908	-0.6957460207321414	-0.2090202583561201	1.8358602718074517	-0.7416402238394595
